<svg id="Layer_1" data-name="Layer 1" xmlns="http://www.w3.org/2000/svg" viewBox="0 0 474.97 28.53"><defs><style>.cls-1{stroke:#000;}.cls-1,.cls-2{stroke-miterlimit:10;stroke-width:1.93px;}.cls-2{stroke:#fff;}</style></defs><title>logo-black</title><path class="cls-1" d="M130.6,30a7.57,7.57,0,0,0,2.4-5.6,8,8,0,0,0-2.7-6,9.66,9.66,0,0,0-6.6-2.5h-26V42.3h7.2V32.7H117l7.9,9.6h8.4l-8.6-9.7A9.69,9.69,0,0,0,130.6,30Zm-25.7-3V21.9h18a2.72,2.72,0,0,1,2,.7,2.56,2.56,0,0,1,.8,1.9,2.58,2.58,0,0,1-2.8,2.6Z" transform="translate(-18.3 -14.93)"/><path class="cls-1" d="M176,18.2a8.64,8.64,0,0,0-6-2.3H149.3a8.47,8.47,0,0,0-6,2.3,7.29,7.29,0,0,0-2.5,5.5v11a7.11,7.11,0,0,0,2.5,5.5,8.82,8.82,0,0,0,6,2.3H170a8.47,8.47,0,0,0,6-2.3,7,7,0,0,0,2.5-5.5v-11A7,7,0,0,0,176,18.2Zm-4.7,15.2a2.84,2.84,0,0,1-1,2.2,3.24,3.24,0,0,1-2.4.9H151.5a3.24,3.24,0,0,1-2.4-.9,2.84,2.84,0,0,1-1-2.2V24.9a2.7,2.7,0,0,1,1-2.2,3.58,3.58,0,0,1,2.4-.9h16.4a3.24,3.24,0,0,1,2.4.9,2.7,2.7,0,0,1,1,2.2Z" transform="translate(-18.3 -14.93)"/><path class="cls-1" d="M201.7,16,185,42.4h7.8l3.7-5.8h17.9l3.6,5.8h7.8L208.9,16Zm-1.8,15,5.4-8.5,5.4,8.5Z" transform="translate(-18.3 -14.93)"/><path class="cls-1" d="M264.6,17a9.76,9.76,0,0,0-4.4-1H232.1V42.4h28.1a9.2,9.2,0,0,0,4.4-1,9.32,9.32,0,0,0,3.4-2.8,6.31,6.31,0,0,0,1.3-3.9v-11a6.31,6.31,0,0,0-1.3-3.9A7.93,7.93,0,0,0,264.6,17Zm-2.5,16.4a2.84,2.84,0,0,1-1,2.2,3.24,3.24,0,0,1-2.4.9H239.4V21.8h19.3a3.24,3.24,0,0,1,2.4.9,2.7,2.7,0,0,1,1,2.2Z" transform="translate(-18.3 -14.93)"/><polygon class="cls-1" points="295.3 1.07 283.4 1.07 265.8 12.37 265.8 1.07 258.6 1.07 258.6 27.47 265.8 27.47 265.8 14.57 284.9 27.47 296.8 27.47 275.1 13.47 295.3 1.07"/><path class="cls-1" d="M354.4,30a7.57,7.57,0,0,0,2.4-5.6,8,8,0,0,0-2.7-6,9.66,9.66,0,0,0-6.6-2.5H321.6V42.3h7.2V32.7h12.1l7.9,9.6h8.4l-8.6-9.7A9.67,9.67,0,0,0,354.4,30Zm-25.7-3V21.9h18a2.72,2.72,0,0,1,2,.7,2.56,2.56,0,0,1,.8,1.9,2.58,2.58,0,0,1-2.8,2.6Z" transform="translate(-18.3 -14.93)"/><path class="cls-2" d="M399.9,18.2a8.64,8.64,0,0,0-6-2.3H373.2a8.47,8.47,0,0,0-6,2.3,7.29,7.29,0,0,0-2.5,5.5v11a7.11,7.11,0,0,0,2.5,5.5,8.82,8.82,0,0,0,6,2.3h20.7a8.47,8.47,0,0,0,6-2.3,7,7,0,0,0,2.5-5.5v-11A7.66,7.66,0,0,0,399.9,18.2Zm-4.8,15.2a2.84,2.84,0,0,1-1,2.2,3.24,3.24,0,0,1-2.4.9H375.3a3.24,3.24,0,0,1-2.4-.9,2.84,2.84,0,0,1-1-2.2V24.9a2.7,2.7,0,0,1,1-2.2,3.58,3.58,0,0,1,2.4-.9h16.4a3.24,3.24,0,0,1,2.4.9,2.7,2.7,0,0,1,1,2.2Z" transform="translate(-18.3 -14.93)"/><polygon class="cls-2" points="412.7 19.57 399.1 1.07 391.6 1.07 391.6 27.47 398.8 27.47 398.8 10.67 409.6 25.07 415.8 25.07 426.6 10.67 426.6 27.47 433.8 27.47 433.8 1.07 426.3 1.07 412.7 19.57"/><polygon class="cls-2" points="474 6.87 474 1.07 441.4 1.07 441.4 27.47 474 27.47 474 21.57 448.6 21.57 448.6 16.97 470.6 16.97 470.6 11.27 448.6 11.27 448.6 6.87 474 6.87"/><path d="M97.1,18.3c0,4.5-3,8.2-6.6,8.2H85.8v4.7h4.7c3.7,0,6.6,3.7,6.6,8.2v3.4h2.4V15L97.1,15Z" transform="translate(-18.3 -14.93)"/><path d="M71.8,25.2h7.9c2.2-5.6,11.2-9.62,19.8-9.62V15C87,15,74.8,19.1,71.8,25.2Z" transform="translate(-18.3 -14.93)"/><path d="M81.52,35.44h-7.6c4.5,4.5,13.52,7.83,23.82,7.83l0-1.23C90.82,42,84.82,39.44,81.52,35.44Z" transform="translate(-18.3 -14.93)"/><path d="M75.9,26.3H18.3a71.51,71.51,0,0,0,15.9,2.1H79a7.61,7.61,0,0,1,.3-2.1Z" transform="translate(-18.3 -14.93)"/><path d="M73.7,29.5H37.9a93.84,93.84,0,0,0,18.3,1.8h23a5.66,5.66,0,0,1-.3-1.8Z" transform="translate(-18.3 -14.93)"/><path d="M78.7,32.3H58.3a97.25,97.25,0,0,0,17,1.9h5.3a7.5,7.5,0,0,1-1-2h-.9Z" transform="translate(-18.3 -14.93)"/></svg>