<?xml version="1.0" encoding="utf-8"?>
<!-- Generator: Adobe Illustrator 21.1.0, SVG Export Plug-In . SVG Version: 6.00 Build 0)  -->
<svg version="1.1" id="Layer_1" xmlns="http://www.w3.org/2000/svg" xmlns:xlink="http://www.w3.org/1999/xlink" x="0px" y="0px"
	 viewBox="0 0 525 54" style="enable-background:new 0 0 525 54;" xml:space="preserve">
<style type="text/css">
	.st0{fill:#FFFFFF;stroke:#FFFFFF;stroke-width:1.932;stroke-miterlimit:10;}
	.st1{fill:#FFFFFF;}
</style>
<path class="st0" d="M130.6,30c1.6-1.6,2.4-3.4,2.4-5.6c0-2.3-0.9-4.3-2.7-6c-1.8-1.6-4-2.5-6.6-2.5H97.7v26.4h7.2v-9.6H117l7.9,9.6
	h8.4l-8.6-9.7C127,32.4,129,31.5,130.6,30z M104.9,27v-5.1h18c0.8,0,1.5,0.2,2,0.7c0.5,0.5,0.8,1.1,0.8,1.9c0,0.7-0.3,1.4-0.8,1.9
	c-0.5,0.5-1.2,0.7-2,0.7L104.9,27z"/>
<path class="st0" d="M176,18.2c-1.6-1.5-3.7-2.3-6-2.3h-20.7c-2.4,0-4.4,0.8-6,2.3c-1.6,1.5-2.5,3.3-2.5,5.5v11c0,2.1,0.8,4,2.5,5.5
	c1.7,1.5,3.7,2.3,6,2.3H170c2.4,0,4.4-0.8,6-2.3c1.7-1.5,2.5-3.3,2.5-5.5v-11C178.5,21.5,177.7,19.7,176,18.2z M171.3,33.4
	c0,0.8-0.3,1.6-1,2.2c-0.6,0.6-1.4,0.9-2.4,0.9h-16.4c-1,0-1.8-0.3-2.4-0.9c-0.7-0.6-1-1.4-1-2.2v-8.5c0-0.9,0.3-1.6,1-2.2
	c0.7-0.6,1.5-0.9,2.4-0.9h16.4c1,0,1.8,0.3,2.4,0.9c0.7,0.6,1,1.3,1,2.2V33.4z"/>
<path class="st0" d="M201.7,16L185,42.4h7.8l3.7-5.8h17.9l3.6,5.8h7.8L208.9,16H201.7z M199.9,31l5.4-8.5l5.4,8.5H199.9z"/>
<path class="st0" d="M264.6,17c-1.4-0.7-2.9-1-4.4-1h-28.1v26.4h28.1c1.6,0,3.1-0.3,4.4-1c1.4-0.7,2.5-1.6,3.4-2.8
	c0.9-1.2,1.3-2.5,1.3-3.9v-11c0-1.4-0.4-2.7-1.3-3.9C267.2,18.6,266.1,17.7,264.6,17z M262.1,33.4c0,0.8-0.3,1.6-1,2.2
	c-0.6,0.6-1.4,0.9-2.4,0.9h-19.3V21.8h19.3c1,0,1.8,0.3,2.4,0.9c0.7,0.6,1,1.3,1,2.2V33.4z"/>
<polygon class="st0" points="313.6,16 301.7,16 284.1,27.3 284.1,16 276.9,16 276.9,42.4 284.1,42.4 284.1,29.5 303.2,42.4 
	315.1,42.4 293.4,28.4 "/>
<path class="st0" d="M354.4,30c1.6-1.6,2.4-3.4,2.4-5.6c0-2.3-0.9-4.3-2.7-6c-1.8-1.6-4-2.5-6.6-2.5h-25.9v26.4h7.2v-9.6h12.1
	l7.9,9.6h8.4l-8.6-9.7C350.8,32.4,352.8,31.5,354.4,30z M328.7,27v-5.1h18c0.8,0,1.5,0.2,2,0.7c0.5,0.5,0.8,1.1,0.8,1.9
	c0,0.7-0.3,1.4-0.8,1.9c-0.5,0.5-1.2,0.7-2,0.7L328.7,27z"/>
<path class="st0" d="M399.9,18.2c-1.6-1.5-3.7-2.3-6-2.3h-20.7c-2.4,0-4.4,0.8-6,2.3c-1.6,1.5-2.5,3.3-2.5,5.5v11
	c0,2.1,0.8,4,2.5,5.5c1.7,1.5,3.7,2.3,6,2.3h20.7c2.4,0,4.4-0.8,6-2.3c1.7-1.5,2.5-3.3,2.5-5.5v-11
	C402.3,21.5,401.5,19.7,399.9,18.2z M395.1,33.4c0,0.8-0.3,1.6-1,2.2c-0.6,0.6-1.4,0.9-2.4,0.9h-16.4c-1,0-1.8-0.3-2.4-0.9
	c-0.7-0.6-1-1.4-1-2.2v-8.5c0-0.9,0.3-1.6,1-2.2c0.7-0.6,1.5-0.9,2.4-0.9h16.4c1,0,1.8,0.3,2.4,0.9c0.7,0.6,1,1.3,1,2.2V33.4z"/>
<polygon class="st0" points="431,34.5 417.4,16 409.9,16 409.9,42.4 417.1,42.4 417.1,25.6 427.9,40 434.1,40 444.9,25.6 
	444.9,42.4 452.1,42.4 452.1,16 444.6,16 "/>
<polygon class="st0" points="492.3,21.8 492.3,16 459.7,16 459.7,42.4 492.3,42.4 492.3,36.5 466.9,36.5 466.9,31.9 488.9,31.9 
	488.9,26.2 466.9,26.2 466.9,21.8 "/>
<path class="st1" d="M97.1,18.3c0,4.5-3,8.2-6.6,8.2h-4.7v4.7h4.7c3.7,0,6.6,3.7,6.6,8.2v3.4h2.4v-28h-2.4V18.3z"/>
<path class="st1" d="M71.8,25.2h3.4l4.5,0c2.2-5.6,9.5-9.6,18.1-9.6v-1C85.3,14.6,74.8,19.1,71.8,25.2z"/>
<path class="st1" d="M81.5,35.4h-6c-0.5,0-1,0-1.6,0c4.5,4.5,13.5,7.6,23.8,7.6v-1C90.8,42,84.8,39.4,81.5,35.4z"/>
<g>
	<path class="st1" d="M75.9,26.3l-0.7,0h-3.9H18.3c5.2,1.3,10.6,2,15.9,2.1l1.9,0H71h5l3,0c0-0.7,0.1-1.4,0.3-2.1L75.9,26.3z"/>
	<path class="st1" d="M73.7,29.5H37.9c6,1.2,12.2,1.8,18.3,1.8l0.3,0h17.5h5h0.2c-0.2-0.6-0.3-1.2-0.3-1.8H73.7z"/>
	<path class="st1" d="M78.7,32.3h-4.8H58.3c5.6,1.1,11.3,1.8,17,1.9c1,0,2,0,2.9,0h0.4h2c-0.4-0.6-0.8-1.3-1-2H78.7z"/>
</g>
</svg>
