<svg id="Layer_1" data-name="Layer 1" xmlns="http://www.w3.org/2000/svg" viewBox="0 0 114 21"><defs><style>.cls-1{stroke:#000;stroke-miterlimit:10;stroke-width:0.5px;}</style></defs><title>logo-menu</title><polygon points="113.02 0 101.33 0 89.05 7.8 89.05 0 82.19 0 82.19 21 89.05 21 89.05 12.06 102.42 21 114 21 96.65 9.92 113.02 0"/><path class="cls-1" d="M173.51,110.06H128a56.88,56.88,0,0,0,13.63,1.79h31.52l1.79-1.79Z" transform="translate(-126.02 -103)"/><path class="cls-1" d="M172.22,112.79H144.86a83.23,83.23,0,0,0,15.72,1.51h11.74l-.8-.8Z" transform="translate(-126.02 -103)"/><path class="cls-1" d="M162.29,115.25a87.15,87.15,0,0,0,12.53,1.56l-1.56-1.56Z" transform="translate(-126.02 -103)"/><path class="cls-1" d="M181.48,116.94l-.16-.26-.26.26Z" transform="translate(-126.02 -103)"/><path d="M201.8,116.58a7.83,7.83,0,0,0,3.52-2h0A6.48,6.48,0,0,0,205,105a7.86,7.86,0,0,0-5.41-2H178.69v5.35L177,110.06l-1.79,1.79-.94.94-.71.71.8.8.94.94,1.66,1.66,1.72,1.72V124h7.59v-7.1h8l6,7.1h8.25Zm-1.69-5.75a1.39,1.39,0,0,1-1,.34H186.28v-2.37h12.84a1.17,1.17,0,0,1,1,.36,1,1,0,0,1,.34.84A1,1,0,0,1,200.11,110.83Z" transform="translate(-126.02 -103)"/></svg>